<svg id="visual" viewBox="0 0 1350 400" width="1350" height="400" xmlns="http://www.w3.org/2000/svg" xmlns:xlink="http://www.w3.org/1999/xlink" version="1.1"><path d="M0 295L32.2 300.5C64.3 306 128.7 317 193 323.7C257.3 330.3 321.7 332.7 386 325.3C450.3 318 514.7 301 578.8 290.5C643 280 707 276 771.2 285.2C835.3 294.3 899.7 316.7 964 326.2C1028.3 335.7 1092.7 332.3 1157 320.3C1221.3 308.3 1285.7 287.7 1317.8 277.3L1350 267L1350 401L1317.8 401C1285.7 401 1221.3 401 1157 401C1092.7 401 1028.3 401 964 401C899.7 401 835.3 401 771.2 401C707 401 643 401 578.8 401C514.7 401 450.3 401 386 401C321.7 401 257.3 401 193 401C128.7 401 64.3 401 32.2 401L0 401Z" fill="#3a80e9" stroke-linecap="round" stroke-linejoin="miter"></path></svg>